# xmcd CD database file
#
# Track frame offsets:
#	150
#	13152
#	24685
#	37527
#	52217
#	62605
#	73935
#	85980
#	100777
#	114920
#	126522
#	138067
#	153220
#	169110
#	182695
#	196262
#
# Disc length: 2754 seconds
#
# Revision: 2
# Processed by: cddbd v1.5PL3 Copyright (c) Steve Scherf et al.
# Submitted via: CDex 1.51
#
DISCID=d20ac010
DTITLE=Collection - The golden years of jazz vol 1
DYEAR=1997
DGENRE=Jazz
TTITLE0=Muskrat Ramble
TTITLE1=ST Louis Blues
TTITLE2=Saving Myself For You
TTITLE3=Beals Street Blues
TTITLE4=The Lady Is A Tramp
TTITLE5=I Got Rhythm
TTITLE6=Swing Low Sweet Clarinet
TTITLE7=Relaxin At The Touro
TTITLE8=Original Jelly Roll Blues
TTITLE9=Tenor King
TTITLE10=Stompin At The Savoy
TTITLE11=Body Soul
TTITLE12=Doggin That Thing
TTITLE13=Sophissticated Lady
TTITLE14=Harlem Lament
TTITLE15=Loverman
EXTD=YEAR: 1997
EXTT0=
EXTT1=
EXTT2=
EXTT3=
EXTT4=
EXTT5=
EXTT6=
EXTT7=
EXTT8=
EXTT9=
EXTT10=
EXTT11=
EXTT12=
EXTT13=
EXTT14=
EXTT15=
PLAYORDER=
